<svg xmlns="http://www.w3.org/2000/svg" viewBox="0 0 512 512" fill="none">
  <rect width="512" height="512" rx="96" fill="#F6F1E8"/>
  <path d="M254 98c14 0 25 11 25 25v76l41-41c10-10 26-10 36 0s10 26 0 36l-70 70v67h82l48-48c10-10 26-10 36 0s10 26 0 36l-34 34 64 64c10 10 10 26 0 36s-26 10-36 0l-64-64-34 34c-10 10-26 10-36 0s-10-26 0-36l48-48h-82v82l48 48c10 10 10 26 0 36s-26 10-36 0l-34-34-64 64c-10 10-26 10-36 0s-10-26 0-36l64-64-34-34c-10-10-10-26 0-36s26-10 36 0l48 48h82v-82h-67l-70 70c-10 10-26 10-36 0s-10-26 0-36l41-41h-76c-14 0-25-11-25-25s11-25 25-25h76l-41-41c-10-10-10-26 0-36s26-10 36 0l70 70h67v-67l-70-70c-10-10-10-26 0-36s26-10 36 0l34 34v-76c0-14 11-25 25-25Z" fill="#1F4D37"/>
</svg>
